<svg xmlns="http://www.w3.org/2000/svg" version="1.1" xmlns:xlink="http://www.w3.org/1999/xlink" xmlns:svgjs="http://svgjs.dev/svgjs" width="2048" height="1080" preserveAspectRatio="none" viewBox="0 0 2048 1080"><g mask="url(&quot;#SvgjsMask1077&quot;)" fill="none"><rect width="2048" height="1080" x="0" y="0" fill="rgba(18, 18, 18, 1)"></rect><path d="M1763 534L1762 261" stroke-width="8" stroke="url(&quot;#SvgjsLinearGradient1078&quot;)" stroke-linecap="round" class="Up"></path><path d="M1997 775L1996 -33" stroke-width="10" stroke="url(&quot;#SvgjsLinearGradient1079&quot;)" stroke-linecap="round" class="Down"></path><path d="M1380 59L1379 -320" stroke-width="6" stroke="url(&quot;#SvgjsLinearGradient1078&quot;)" stroke-linecap="round" class="Up"></path><path d="M1708 535L1707 1318" stroke-width="8" stroke="url(&quot;#SvgjsLinearGradient1079&quot;)" stroke-linecap="round" class="Down"></path><path d="M1433 842L1432 1353" stroke-width="10" stroke="url(&quot;#SvgjsLinearGradient1078&quot;)" stroke-linecap="round" class="Up"></path><path d="M1738 852L1737 1379" stroke-width="6" stroke="url(&quot;#SvgjsLinearGradient1078&quot;)" stroke-linecap="round" class="Up"></path><path d="M1779 1017L1778 1497" stroke-width="8" stroke="url(&quot;#SvgjsLinearGradient1080&quot;)" stroke-linecap="round" class="Up"></path><path d="M1797 44L1796 582" stroke-width="8" stroke="url(&quot;#SvgjsLinearGradient1078&quot;)" stroke-linecap="round" class="Up"></path><path d="M707 955L706 375" stroke-width="10" stroke="url(&quot;#SvgjsLinearGradient1079&quot;)" stroke-linecap="round" class="Down"></path><path d="M185 432L184 1042" stroke-width="10" stroke="url(&quot;#SvgjsLinearGradient1079&quot;)" stroke-linecap="round" class="Down"></path><path d="M201 997L200 679" stroke-width="10" stroke="url(&quot;#SvgjsLinearGradient1078&quot;)" stroke-linecap="round" class="Up"></path><path d="M1126 989L1125 615" stroke-width="6" stroke="url(&quot;#SvgjsLinearGradient1079&quot;)" stroke-linecap="round" class="Down"></path><path d="M1263 1061L1262 1780" stroke-width="10" stroke="url(&quot;#SvgjsLinearGradient1079&quot;)" stroke-linecap="round" class="Down"></path><path d="M437 946L436 1638" stroke-width="6" stroke="url(&quot;#SvgjsLinearGradient1081&quot;)" stroke-linecap="round" class="Down"></path><path d="M1264 829L1263 1230" stroke-width="10" stroke="url(&quot;#SvgjsLinearGradient1080&quot;)" stroke-linecap="round" class="Up"></path><path d="M542 555L541 -31" stroke-width="8" stroke="url(&quot;#SvgjsLinearGradient1081&quot;)" stroke-linecap="round" class="Down"></path><path d="M826 338L825 629" stroke-width="10" stroke="url(&quot;#SvgjsLinearGradient1078&quot;)" stroke-linecap="round" class="Up"></path><path d="M1876 889L1875 457" stroke-width="8" stroke="url(&quot;#SvgjsLinearGradient1079&quot;)" stroke-linecap="round" class="Down"></path><path d="M1980 301L1979 822" stroke-width="8" stroke="url(&quot;#SvgjsLinearGradient1079&quot;)" stroke-linecap="round" class="Down"></path><path d="M1105 420L1104 -334" stroke-width="8" stroke="url(&quot;#SvgjsLinearGradient1079&quot;)" stroke-linecap="round" class="Down"></path><path d="M409 28L408 637" stroke-width="6" stroke="url(&quot;#SvgjsLinearGradient1079&quot;)" stroke-linecap="round" class="Down"></path><path d="M183 407L182 894" stroke-width="8" stroke="url(&quot;#SvgjsLinearGradient1079&quot;)" stroke-linecap="round" class="Down"></path><path d="M130 1056L129 1590" stroke-width="6" stroke="url(&quot;#SvgjsLinearGradient1080&quot;)" stroke-linecap="round" class="Up"></path><path d="M316 303L315 -24" stroke-width="6" stroke="url(&quot;#SvgjsLinearGradient1078&quot;)" stroke-linecap="round" class="Up"></path><path d="M477 652L476 1453" stroke-width="10" stroke="url(&quot;#SvgjsLinearGradient1078&quot;)" stroke-linecap="round" class="Up"></path><path d="M488 472L487 892" stroke-width="6" stroke="url(&quot;#SvgjsLinearGradient1080&quot;)" stroke-linecap="round" class="Up"></path><path d="M399 710L398 1423" stroke-width="10" stroke="url(&quot;#SvgjsLinearGradient1079&quot;)" stroke-linecap="round" class="Down"></path><path d="M1925 875L1924 1671" stroke-width="10" stroke="url(&quot;#SvgjsLinearGradient1079&quot;)" stroke-linecap="round" class="Down"></path><path d="M1900 846L1899 225" stroke-width="10" stroke="url(&quot;#SvgjsLinearGradient1081&quot;)" stroke-linecap="round" class="Down"></path><path d="M1652 481L1651 -57" stroke-width="10" stroke="url(&quot;#SvgjsLinearGradient1080&quot;)" stroke-linecap="round" class="Up"></path><path d="M1130 180L1129 917" stroke-width="8" stroke="url(&quot;#SvgjsLinearGradient1079&quot;)" stroke-linecap="round" class="Down"></path><path d="M1103 330L1102 -116" stroke-width="10" stroke="url(&quot;#SvgjsLinearGradient1081&quot;)" stroke-linecap="round" class="Down"></path><path d="M1333 109L1332 -170" stroke-width="10" stroke="url(&quot;#SvgjsLinearGradient1079&quot;)" stroke-linecap="round" class="Down"></path><path d="M778 683L777 -9" stroke-width="8" stroke="url(&quot;#SvgjsLinearGradient1079&quot;)" stroke-linecap="round" class="Down"></path><path d="M873 24L872 330" stroke-width="6" stroke="url(&quot;#SvgjsLinearGradient1078&quot;)" stroke-linecap="round" class="Up"></path><path d="M1636 524L1635 1089" stroke-width="10" stroke="url(&quot;#SvgjsLinearGradient1080&quot;)" stroke-linecap="round" class="Up"></path><path d="M974 703L973 1318" stroke-width="6" stroke="url(&quot;#SvgjsLinearGradient1078&quot;)" stroke-linecap="round" class="Up"></path><path d="M1325 591L1324 1077" stroke-width="6" stroke="url(&quot;#SvgjsLinearGradient1080&quot;)" stroke-linecap="round" class="Up"></path><path d="M1822 347L1821 775" stroke-width="10" stroke="url(&quot;#SvgjsLinearGradient1079&quot;)" stroke-linecap="round" class="Down"></path><path d="M1562 715L1561 123" stroke-width="8" stroke="url(&quot;#SvgjsLinearGradient1079&quot;)" stroke-linecap="round" class="Down"></path><path d="M1455 824L1454 257" stroke-width="10" stroke="url(&quot;#SvgjsLinearGradient1079&quot;)" stroke-linecap="round" class="Down"></path><path d="M1950 345L1949 -97" stroke-width="6" stroke="url(&quot;#SvgjsLinearGradient1078&quot;)" stroke-linecap="round" class="Up"></path><path d="M1805 19L1804 395" stroke-width="8" stroke="url(&quot;#SvgjsLinearGradient1079&quot;)" stroke-linecap="round" class="Down"></path><path d="M620 874L619 414" stroke-width="6" stroke="url(&quot;#SvgjsLinearGradient1080&quot;)" stroke-linecap="round" class="Up"></path><path d="M949 863L948 1535" stroke-width="10" stroke="url(&quot;#SvgjsLinearGradient1079&quot;)" stroke-linecap="round" class="Down"></path><path d="M384 508L383 134" stroke-width="10" stroke="url(&quot;#SvgjsLinearGradient1079&quot;)" stroke-linecap="round" class="Down"></path><path d="M2019 743L2018 151" stroke-width="10" stroke="url(&quot;#SvgjsLinearGradient1078&quot;)" stroke-linecap="round" class="Up"></path><path d="M1685 666L1684 222" stroke-width="8" stroke="url(&quot;#SvgjsLinearGradient1080&quot;)" stroke-linecap="round" class="Up"></path><path d="M1106 225L1105 -366" stroke-width="8" stroke="url(&quot;#SvgjsLinearGradient1078&quot;)" stroke-linecap="round" class="Up"></path><path d="M1666 575L1665 129" stroke-width="6" stroke="url(&quot;#SvgjsLinearGradient1080&quot;)" stroke-linecap="round" class="Up"></path><path d="M1065 112L1064 709" stroke-width="10" stroke="url(&quot;#SvgjsLinearGradient1078&quot;)" stroke-linecap="round" class="Up"></path><path d="M1298 197L1297 -347" stroke-width="10" stroke="url(&quot;#SvgjsLinearGradient1081&quot;)" stroke-linecap="round" class="Down"></path></g><defs><mask id="SvgjsMask1077"><rect width="2048" height="1080" fill="#ffffff"></rect></mask><linearGradient x1="0%" y1="100%" x2="0%" y2="0%" id="SvgjsLinearGradient1078"><stop stop-color="rgba(44, 44, 44, 0)" offset="0"></stop><stop stop-color="rgba(44, 44, 44, 1)" offset="1"></stop></linearGradient><linearGradient x1="0%" y1="0%" x2="0%" y2="100%" id="SvgjsLinearGradient1079"><stop stop-color="rgba(56, 79, 101, 0)" offset="0"></stop><stop stop-color="rgba(56, 79, 101, 1)" offset="1"></stop></linearGradient><linearGradient x1="0%" y1="100%" x2="0%" y2="0%" id="SvgjsLinearGradient1080"><stop stop-color="rgba(56, 79, 101, 0)" offset="0"></stop><stop stop-color="rgba(56, 79, 101, 1)" offset="1"></stop></linearGradient><linearGradient x1="0%" y1="0%" x2="0%" y2="100%" id="SvgjsLinearGradient1081"><stop stop-color="rgba(44, 44, 44, 0)" offset="0"></stop><stop stop-color="rgba(44, 44, 44, 1)" offset="1"></stop></linearGradient></defs></svg>